<svg id="Layer_1" data-name="Layer 1" xmlns="http://www.w3.org/2000/svg" viewBox="0 0 198.4 31.89"><defs><style>.cls-1{font-size:19.83px;font-family:Audiowide-Regular, Audiowide;}.cls-1,.cls-10,.cls-9{fill:#fff;}.cls-2{letter-spacing:-0.02em;}.cls-3{letter-spacing:0em;}.cls-4,.cls-5{letter-spacing:0em;}.cls-4,.cls-6{fill:#000;}.cls-5,.cls-8{fill:#f6921e;}.cls-6{letter-spacing:-0.01em;}.cls-7{letter-spacing:0em;}.cls-10{font-size:12.67px;font-family:Calibri;}.cls-11{letter-spacing:-0.01em;}.cls-12{letter-spacing:-0.05em;}.cls-13{letter-spacing:-0.08em;}.cls-14{letter-spacing:0em;}.cls-15{letter-spacing:-0.01em;}.cls-16{letter-spacing:0em;}.cls-17{letter-spacing:-0.01em;}</style></defs><text class="cls-1" transform="translate(32.69 18.28)">THE<tspan class="cls-2" x="46.21" y="0">T</tspan><tspan class="cls-3" x="60.13" y="0">A</tspan><tspan class="cls-4" x="76.67" y="0"> </tspan><tspan class="cls-5" x="83.02" y="0">X</tspan><tspan class="cls-6" x="98.54" y="0"> </tspan><tspan x="104.77" y="0">T</tspan><tspan class="cls-7" x="119.17" y="0">E</tspan><tspan x="134.06" y="0">CH</tspan></text><g id="Logo"><path class="cls-8" d="M21.46,32.44a10.29,10.29,0,0,1-7.84,3.32,10.7,10.7,0,1,1,0-21.39,10.88,10.88,0,0,1,2.45.28S17.56,13,17.56,13h0A12.74,12.74,0,1,0,25.77,28.6l-9.69.06L6.13,32.19l10-1.22" transform="translate(-0.79 -7.91)"/><polygon class="cls-8" points="9.73 11.65 29.18 0 23.62 8.27 11.46 13.63 4.71 22.61 9.73 11.65"/><polygon class="cls-9" points="5.42 23.27 13.31 14.88 32.36 7.8 26.89 17.37 15.17 19.08 5.42 23.27"/></g><text class="cls-10" transform="translate(37.5 27.93) scale(1.09 1)">INN<tspan class="cls-11" x="19.54" y="0">O</tspan><tspan class="cls-12" x="27.77" y="0">V</tspan><tspan class="cls-13" x="34.37" y="0">A</tspan><tspan class="cls-14" x="40.7" y="0">TION IN EVE</tspan><tspan class="cls-15" x="103.28" y="0">R</tspan><tspan class="cls-16" x="109.97" y="0">Y </tspan><tspan class="cls-17" x="119" y="0">S</tspan><tspan class="cls-16" x="124.74" y="0">TEP</tspan></text></svg>