<svg id="Layer_1" data-name="Layer 1" xmlns="http://www.w3.org/2000/svg" viewBox="0 0 196.92 29.88"><path d="M47.49,14.82H41.94V26.19H39.43V14.82H33.87V12.31H47.49Z" transform="translate(-0.79 -7.91)" fill="#fff"/><path d="M51.88,18h8.84V12.31h2.51V26.19H60.72V20.52H51.88v5.67H49.36V12.31h2.52Z" transform="translate(-0.79 -7.91)" fill="#fff"/><path d="M78.73,26.19H69.64A4.08,4.08,0,0,1,68.5,26a3.65,3.65,0,0,1-1.15-.61,3.55,3.55,0,0,1-.88-1.09,3.59,3.59,0,0,1-.35-1.65V13.57a1.16,1.16,0,0,1,.1-.49,1.25,1.25,0,0,1,.26-.41,1.56,1.56,0,0,1,.4-.27,1.44,1.44,0,0,1,.51-.09H78.73v2.51H68.64v7.84a1,1,0,0,0,.26.75,1,1,0,0,0,.76.26h9.07Zm-1.14-5.67h-8V18h8Z" transform="translate(-0.79 -7.91)" fill="#fff"/><path d="M93.7,14.82H88.16V26.19H85.64V14.82H80.08V12.31H93.7Z" transform="translate(-0.79 -7.91)" fill="#fff"/><path d="M108.69,26.19h-2.52V22.78H97.32v3.41H94.81V19.25a7.27,7.27,0,0,1,.52-2.8A6.43,6.43,0,0,1,99,12.82a7.38,7.38,0,0,1,2.77-.51h5.67a1.39,1.39,0,0,1,.5.09,1.41,1.41,0,0,1,.4.27,1.3,1.3,0,0,1,.28.41,1.33,1.33,0,0,1,.09.49ZM97.32,20.26h8.85V14.82h-4.42l-.49,0a4.64,4.64,0,0,0-.86.17,5,5,0,0,0-1,.41,3.67,3.67,0,0,0-1,.78,4.13,4.13,0,0,0-.75,1.23,4.77,4.77,0,0,0-.3,1.8Z" transform="translate(-0.79 -7.91)" fill="#fff"/><path d="M124.31,17.26l4.24-5H132l-6,7L132,26.19h-3.42l-4.22-4.92-4.2,4.92h-3.43l5.92-6.92-5.94-7h3.41Z" transform="translate(-0.79 -7.91)" fill="#f6921e"/><path d="M152.26,14.82h-5.55V26.19H144.2V14.82h-5.56V12.31h13.62Z" transform="translate(-0.79 -7.91)" fill="#fff"/><path d="M166.66,26.19h-9.08a4.2,4.2,0,0,1-1.15-.18,3.5,3.5,0,0,1-1.14-.61,3.28,3.28,0,0,1-.88-1.09,3.47,3.47,0,0,1-.36-1.65V13.57a1.16,1.16,0,0,1,.1-.49,1.13,1.13,0,0,1,.27-.41,1.28,1.28,0,0,1,.4-.27,1.35,1.35,0,0,1,.5-.09h11.34v2.51H156.57v7.84a1,1,0,0,0,.26.75,1.07,1.07,0,0,0,.77.26h9.06Zm-1.13-5.67h-7.95V18h7.95Z" transform="translate(-0.79 -7.91)" fill="#fff"/><path d="M181.43,26.19h-9.08a4.17,4.17,0,0,1-.75-.08,3.85,3.85,0,0,1-.79-.26,4.14,4.14,0,0,1-.75-.45,3.15,3.15,0,0,1-.64-.67,3.35,3.35,0,0,1-.44-.91,3.78,3.78,0,0,1-.16-1.16V15.84a3.84,3.84,0,0,1,.34-1.55,3.25,3.25,0,0,1,.45-.75,3.16,3.16,0,0,1,.68-.63,3.43,3.43,0,0,1,.9-.44,3.78,3.78,0,0,1,1.16-.16h9.08v2.51h-9.08a1,1,0,0,0-.75.26,1.05,1.05,0,0,0-.26.78v6.8a1,1,0,0,0,.26.75,1.05,1.05,0,0,0,.75.26h9.08Z" transform="translate(-0.79 -7.91)" fill="#fff"/><path d="M186.35,18h8.84V12.31h2.52V26.19h-2.52V20.52h-8.84v5.67h-2.52V12.31h2.52Z" transform="translate(-0.79 -7.91)" fill="#fff"/><g id="Logo"><path d="M21.46,32.44a10.29,10.29,0,0,1-7.84,3.32,10.7,10.7,0,1,1,0-21.39,10.88,10.88,0,0,1,2.45.28S17.56,13,17.56,13h0A12.74,12.74,0,1,0,25.77,28.6l-9.69.06L6.13,32.19l10-1.22" transform="translate(-0.79 -7.91)" fill="#f6921e"/><polygon points="9.73 11.65 29.18 0 23.62 8.27 11.46 13.63 4.71 22.61 9.73 11.65" fill="#f6921e"/><polygon points="5.42 23.27 13.31 14.88 32.36 7.8 26.89 17.37 15.17 19.08 5.42 23.27" fill="#fff"/></g><path d="M40.6,35.68a.16.16,0,0,1,0,.09.17.17,0,0,1-.09.06l-.18,0-.28,0-.27,0-.18,0-.1-.06a.15.15,0,0,1,0-.09V28a.16.16,0,0,1,0-.09l.1-.06.18,0,.26,0,.28,0,.18,0a.17.17,0,0,1,.09.06.16.16,0,0,1,0,.09Z" transform="translate(-0.79 -7.91)" fill="#fff"/><path d="M49.49,35.4a.46.46,0,0,1-.05.21.33.33,0,0,1-.12.14.35.35,0,0,1-.16.08.57.57,0,0,1-.18,0H48.6a1.51,1.51,0,0,1-.32,0A.91.91,0,0,1,48,35.7a1.36,1.36,0,0,1-.24-.24,4,4,0,0,1-.26-.4l-2.65-4.55c-.14-.23-.28-.48-.42-.74L44.06,29h0c0,.3,0,.6,0,.91s0,.61,0,.92v4.83a.11.11,0,0,1,0,.08.22.22,0,0,1-.09.07l-.18,0-.28,0-.28,0-.18,0a.22.22,0,0,1-.09-.07.11.11,0,0,1,0-.08V28.3a.39.39,0,0,1,.16-.36.56.56,0,0,1,.33-.1H44a1.55,1.55,0,0,1,.33,0,.69.69,0,0,1,.25.1.76.76,0,0,1,.2.2,2.49,2.49,0,0,1,.22.32L47,32l.36.63c.12.2.23.4.34.6l.32.59.31.57h0c0-.32,0-.66,0-1V28a.11.11,0,0,1,0-.08.22.22,0,0,1,.09-.07l.18,0h.56l.18,0a.22.22,0,0,1,.09.07.11.11,0,0,1,0,.08Z" transform="translate(-0.79 -7.91)" fill="#fff"/><path d="M58.37,35.4a.46.46,0,0,1,0,.21.33.33,0,0,1-.12.14.38.38,0,0,1-.17.08.57.57,0,0,1-.18,0h-.38a1.42,1.42,0,0,1-.31,0,.79.79,0,0,1-.26-.13,1.82,1.82,0,0,1-.25-.24,4.1,4.1,0,0,1-.25-.4l-2.66-4.55c-.14-.23-.28-.48-.42-.74L52.94,29h0c0,.3,0,.6,0,.91v5.75a.19.19,0,0,1,0,.08.2.2,0,0,1-.1.07l-.18,0-.28,0-.28,0-.17,0a.22.22,0,0,1-.09-.07.11.11,0,0,1,0-.08V28.3a.41.41,0,0,1,.15-.36.56.56,0,0,1,.33-.1h.57a1.58,1.58,0,0,1,.34,0,.64.64,0,0,1,.24.1,1,1,0,0,1,.21.2,1.77,1.77,0,0,1,.21.32l2,3.51q.2.31.36.63c.12.2.23.4.34.6s.22.39.32.59l.32.57h0c0-.32,0-.66,0-1s0-.7,0-1V28a.11.11,0,0,1,0-.08.2.2,0,0,1,.1-.07.6.6,0,0,1,.18,0h.55a.6.6,0,0,1,.18,0,.22.22,0,0,1,.09.07.11.11,0,0,1,0,.08Z" transform="translate(-0.79 -7.91)" fill="#fff"/><path d="M68,31.75a6,6,0,0,1-.25,1.75A3.54,3.54,0,0,1,67,34.82a3.31,3.31,0,0,1-1.24.85A4.88,4.88,0,0,1,64,36a4.81,4.81,0,0,1-1.7-.27,3,3,0,0,1-1.18-.78,3.18,3.18,0,0,1-.7-1.28,6.13,6.13,0,0,1-.23-1.75,5.5,5.5,0,0,1,.25-1.72,3.6,3.6,0,0,1,.75-1.31A3.32,3.32,0,0,1,62.43,28a4.88,4.88,0,0,1,1.74-.29,4.68,4.68,0,0,1,1.67.27,3,3,0,0,1,1.19.77A3.24,3.24,0,0,1,67.74,30,6.09,6.09,0,0,1,68,31.75Zm-1.23.07a5.6,5.6,0,0,0-.13-1.26,2.76,2.76,0,0,0-.43-1,2.17,2.17,0,0,0-.82-.67,3,3,0,0,0-1.26-.24,2.8,2.8,0,0,0-1.26.26,2.25,2.25,0,0,0-.83.69,2.83,2.83,0,0,0-.46,1,5.37,5.37,0,0,0-.13,1.22,6.61,6.61,0,0,0,.12,1.3,2.94,2.94,0,0,0,.43,1,2,2,0,0,0,.81.67,3,3,0,0,0,1.27.24,2.89,2.89,0,0,0,1.28-.26,2.37,2.37,0,0,0,.83-.7,2.91,2.91,0,0,0,.45-1A5.46,5.46,0,0,0,66.74,31.82Z" transform="translate(-0.79 -7.91)" fill="#fff"/><path d="M73.14,35.66a.41.41,0,0,1-.07.11.26.26,0,0,1-.13.06l-.22,0h-.58l-.19,0-.14,0-.1,0a.12.12,0,0,1-.06-.06.56.56,0,0,1-.05-.08l-2.84-7.43A1.06,1.06,0,0,1,68.7,28a.15.15,0,0,1,.06-.13.43.43,0,0,1,.2-.06h.66l.17,0a.22.22,0,0,1,.09.07l.06.1,2.49,6.74h0L74.86,28a1.17,1.17,0,0,1,0-.11.22.22,0,0,1,.09-.07l.19,0h.32l.33,0a.3.3,0,0,1,.17.06A.12.12,0,0,1,76,28a.82.82,0,0,1-.06.22Z" transform="translate(-0.79 -7.91)" fill="#fff"/><path d="M83.3,35.46a.61.61,0,0,1,.06.22.14.14,0,0,1,0,.13.34.34,0,0,1-.18.06h-.66l-.19,0-.09-.06-.06-.09-.75-1.95H77.77l-.72,1.92a.31.31,0,0,1,0,.1.29.29,0,0,1-.1.07l-.18,0h-.3l-.32,0a.34.34,0,0,1-.18-.06.15.15,0,0,1,0-.12,1.5,1.5,0,0,1,.06-.22L78.85,28a.41.41,0,0,1,.07-.11.32.32,0,0,1,.13-.07l.21,0H80l.23,0a.24.24,0,0,1,.13.08.31.31,0,0,1,.08.11ZM79.56,28.9h0l-1.49,4h3Z" transform="translate(-0.79 -7.91)" fill="#fff"/><path d="M89.13,28.3a1.27,1.27,0,0,1,0,.2.46.46,0,0,1-.05.14.27.27,0,0,1-.07.08l-.1,0H86.46v6.94a.16.16,0,0,1,0,.09l-.1.06-.17,0-.28,0-.28,0-.18,0a.23.23,0,0,1-.09-.06.16.16,0,0,1,0-.09V28.74H82.85l-.09,0a.18.18,0,0,1-.07-.08.46.46,0,0,1,0-.14,1.23,1.23,0,0,1,0-.2,1.25,1.25,0,0,1,0-.21.53.53,0,0,1,0-.15.18.18,0,0,1,.07-.08l.09,0H88.9l.1,0a.27.27,0,0,1,.07.08.53.53,0,0,1,.05.15A1.34,1.34,0,0,1,89.13,28.3Z" transform="translate(-0.79 -7.91)" fill="#fff"/><path d="M91.54,35.68a.29.29,0,0,1,0,.09.29.29,0,0,1-.1.06l-.18,0-.27,0-.28,0-.18,0a.29.29,0,0,1-.1-.06.29.29,0,0,1,0-.09V28a.16.16,0,0,1,0-.09.29.29,0,0,1,.1-.06l.18,0,.27,0,.27,0,.18,0a.29.29,0,0,1,.1.06.29.29,0,0,1,0,.09Z" transform="translate(-0.79 -7.91)" fill="#fff"/><path d="M101.14,31.75a5.65,5.65,0,0,1-.25,1.75,3.41,3.41,0,0,1-.74,1.32,3.23,3.23,0,0,1-1.24.85,5.42,5.42,0,0,1-3.44,0,3,3,0,0,1-1.18-.78,3.44,3.44,0,0,1-.7-1.28,6.15,6.15,0,0,1-.22-1.75,5.81,5.81,0,0,1,.24-1.72,3.6,3.6,0,0,1,.75-1.31A3.41,3.41,0,0,1,95.6,28a4.88,4.88,0,0,1,1.74-.29A4.77,4.77,0,0,1,99,28a2.92,2.92,0,0,1,1.18.77,3.24,3.24,0,0,1,.71,1.26A6.09,6.09,0,0,1,101.14,31.75Zm-1.22.07a6.25,6.25,0,0,0-.13-1.26,3,3,0,0,0-.44-1,2.06,2.06,0,0,0-.81-.67,3,3,0,0,0-1.27-.24,2.8,2.8,0,0,0-1.26.26,2.25,2.25,0,0,0-.83.69,2.81,2.81,0,0,0-.45,1,4.86,4.86,0,0,0-.14,1.22,6.61,6.61,0,0,0,.12,1.3,2.94,2.94,0,0,0,.43,1,2.08,2.08,0,0,0,.82.67,2.94,2.94,0,0,0,1.27.24,2.84,2.84,0,0,0,1.27-.26,2.29,2.29,0,0,0,.83-.7,2.91,2.91,0,0,0,.45-1A5.45,5.45,0,0,0,99.92,31.82Z" transform="translate(-0.79 -7.91)" fill="#fff"/><path d="M109.54,35.4a.46.46,0,0,1,0,.21.33.33,0,0,1-.12.14.38.38,0,0,1-.17.08.57.57,0,0,1-.18,0h-.38a1.58,1.58,0,0,1-.32,0,1,1,0,0,1-.25-.13,1.82,1.82,0,0,1-.25-.24,4.1,4.1,0,0,1-.25-.4l-2.66-4.55-.42-.74-.39-.75h0c0,.3,0,.6,0,.91v5.75a.11.11,0,0,1,0,.08.26.26,0,0,1-.1.07l-.18,0-.28,0-.28,0-.17,0a.22.22,0,0,1-.09-.07.11.11,0,0,1,0-.08V28.3a.41.41,0,0,1,.15-.36.56.56,0,0,1,.33-.1H104a1.58,1.58,0,0,1,.34,0,.64.64,0,0,1,.24.1,1,1,0,0,1,.21.2,1.77,1.77,0,0,1,.21.32l2,3.51q.19.31.36.63c.12.2.23.4.34.6s.22.39.32.59l.32.57h0c0-.32,0-.66,0-1V28a.11.11,0,0,1,0-.08.2.2,0,0,1,.1-.07.6.6,0,0,1,.18,0h.55a.6.6,0,0,1,.18,0,.22.22,0,0,1,.09.07.11.11,0,0,1,0,.08Z" transform="translate(-0.79 -7.91)" fill="#fff"/><path d="M116.12,35.68a.16.16,0,0,1,0,.09.23.23,0,0,1-.09.06l-.18,0-.28,0-.27,0-.18,0-.1-.06a.16.16,0,0,1,0-.09V28a.12.12,0,0,1,0-.09.21.21,0,0,1,.1-.06l.18,0,.26,0,.28,0,.18,0a.23.23,0,0,1,.09.06.16.16,0,0,1,0,.09Z" transform="translate(-0.79 -7.91)" fill="#fff"/><path d="M125,35.4a.46.46,0,0,1-.05.21.33.33,0,0,1-.12.14.35.35,0,0,1-.16.08.57.57,0,0,1-.18,0h-.38a1.51,1.51,0,0,1-.32,0,.91.91,0,0,1-.26-.13,1.36,1.36,0,0,1-.24-.24,4,4,0,0,1-.26-.4l-2.65-4.55c-.14-.23-.28-.48-.42-.74l-.39-.75h0c0,.3,0,.6,0,.91s0,.61,0,.92v4.83a.11.11,0,0,1,0,.08.2.2,0,0,1-.1.07l-.17,0-.28,0-.28,0-.18,0a.22.22,0,0,1-.09-.07.11.11,0,0,1,0-.08V28.3a.39.39,0,0,1,.16-.36.56.56,0,0,1,.33-.1h.57a1.55,1.55,0,0,1,.33,0,.69.69,0,0,1,.25.1,1,1,0,0,1,.21.2c.06.08.13.19.21.32l2,3.51.36.63c.12.2.23.4.34.6s.21.39.32.59l.31.57h0c0-.32,0-.66,0-1V28a.11.11,0,0,1,0-.08.22.22,0,0,1,.09-.07l.18,0h.56l.18,0a.22.22,0,0,1,.09.07.11.11,0,0,1,0,.08Z" transform="translate(-0.79 -7.91)" fill="#fff"/><path d="M135.27,35.4a1.12,1.12,0,0,1,0,.2.33.33,0,0,1,0,.14l-.08.08-.1,0h-4.17a.52.52,0,0,1-.29-.09.4.4,0,0,1-.14-.34V28.27a.4.4,0,0,1,.14-.34.52.52,0,0,1,.29-.09H135l.09,0a.18.18,0,0,1,.07.08.58.58,0,0,1,0,.14,1.34,1.34,0,0,1,0,.21,1.09,1.09,0,0,1,0,.19.38.38,0,0,1,0,.14.14.14,0,0,1-.07.08l-.09,0h-3.41v2.51h2.92a.17.17,0,0,1,.1,0,.27.27,0,0,1,.07.08.39.39,0,0,1,.05.13,1.34,1.34,0,0,1,0,.21,1.09,1.09,0,0,1,0,.19.39.39,0,0,1-.05.13.16.16,0,0,1-.07.07.16.16,0,0,1-.1,0h-2.92V35H135a.16.16,0,0,1,.1,0,.2.2,0,0,1,.08.08.25.25,0,0,1,0,.13A1.25,1.25,0,0,1,135.27,35.4Z" transform="translate(-0.79 -7.91)" fill="#fff"/><path d="M140.67,35.66a.44.44,0,0,1-.08.11.23.23,0,0,1-.13.06l-.21,0h-.59l-.19,0-.14,0-.1,0-.06-.06a.2.2,0,0,1,0-.08l-2.85-7.43a.91.91,0,0,1-.05-.22.12.12,0,0,1,.05-.13.43.43,0,0,1,.2-.06h.66l.17,0a.22.22,0,0,1,.09.07l.06.1L140,34.75h0L142.39,28a.36.36,0,0,1,0-.11.2.2,0,0,1,.1-.07l.18,0H143l.33,0a.27.27,0,0,1,.16.06.12.12,0,0,1,0,.12.56.56,0,0,1-.06.22Z" transform="translate(-0.79 -7.91)" fill="#fff"/><path d="M149.8,35.4a1.12,1.12,0,0,1,0,.2.33.33,0,0,1,0,.14l-.08.08-.1,0h-4.17a.52.52,0,0,1-.29-.09.38.38,0,0,1-.14-.34V28.27a.38.38,0,0,1,.14-.34.52.52,0,0,1,.29-.09h4.13l.09,0a.18.18,0,0,1,.07.08.58.58,0,0,1,0,.14,1.34,1.34,0,0,1,0,.21,1.09,1.09,0,0,1,0,.19.38.38,0,0,1,0,.14.14.14,0,0,1-.07.08l-.09,0h-3.41v2.51H149a.17.17,0,0,1,.1,0,.27.27,0,0,1,.07.08.39.39,0,0,1,.05.13c0,.06,0,.13,0,.21s0,.14,0,.19a.39.39,0,0,1-.05.13.16.16,0,0,1-.07.07.16.16,0,0,1-.1,0h-2.92V35h3.45a.16.16,0,0,1,.1,0l.08.08a.25.25,0,0,1,0,.13A1.25,1.25,0,0,1,149.8,35.4Z" transform="translate(-0.79 -7.91)" fill="#fff"/><path d="M157.48,35.68a.29.29,0,0,1,0,.09.17.17,0,0,1-.09.06l-.19,0h-.6l-.18,0a.31.31,0,0,1-.11-.08l-.06-.13-.8-1.88c-.1-.22-.19-.41-.29-.59a1.89,1.89,0,0,0-.36-.47,1.44,1.44,0,0,0-.49-.3,2,2,0,0,0-.68-.11h-.78v3.41a.11.11,0,0,1,0,.09.23.23,0,0,1-.09.06l-.17,0-.28,0-.28,0-.18,0a.23.23,0,0,1-.09-.06.16.16,0,0,1,0-.09V28.27a.4.4,0,0,1,.14-.34.52.52,0,0,1,.29-.09h2.4l.39,0a3.72,3.72,0,0,1,.89.25,2.19,2.19,0,0,1,.65.44,1.87,1.87,0,0,1,.39.61,2.25,2.25,0,0,1,0,1.48,1.53,1.53,0,0,1-.34.56,2,2,0,0,1-.53.42,3.13,3.13,0,0,1-.69.31,1.5,1.5,0,0,1,.39.22,1.66,1.66,0,0,1,.33.32,2.78,2.78,0,0,1,.28.42,5.67,5.67,0,0,1,.27.55l.78,1.76.12.31A.5.5,0,0,1,157.48,35.68Zm-1.74-5.62a1.4,1.4,0,0,0-.23-.8,1.3,1.3,0,0,0-.77-.46,1.89,1.89,0,0,0-.38-.06,4.28,4.28,0,0,0-.55,0h-1v2.69H154a2.62,2.62,0,0,0,.79-.1,1.63,1.63,0,0,0,.56-.28,1,1,0,0,0,.32-.43A1.41,1.41,0,0,0,155.74,30.06Z" transform="translate(-0.79 -7.91)" fill="#fff"/><path d="M161.72,32.73v3a.16.16,0,0,1,0,.09l-.09.06-.18,0-.27,0-.28,0-.18,0a.29.29,0,0,1-.1-.06.16.16,0,0,1,0-.09v-3l-2.46-4.51A.88.88,0,0,1,158,28a.11.11,0,0,1,0-.12.31.31,0,0,1,.18-.06h.68a.88.88,0,0,1,.2,0,.24.24,0,0,1,.11.06l.07.1,1.2,2.3q.16.33.33.69l.35.72h0c.1-.23.21-.47.32-.7l.33-.69L163,28a.37.37,0,0,1,.05-.11.2.2,0,0,1,.11-.06.61.61,0,0,1,.17,0h.29l.38,0a.35.35,0,0,1,.19.06.1.1,0,0,1,0,.12,1,1,0,0,1-.09.22Z" transform="translate(-0.79 -7.91)" fill="#fff"/><path d="M173.44,33.6a2.19,2.19,0,0,1-.22,1,2.13,2.13,0,0,1-.63.74,2.66,2.66,0,0,1-.94.46,4,4,0,0,1-1.17.16,4.14,4.14,0,0,1-.81-.07,4.86,4.86,0,0,1-.66-.17,2.6,2.6,0,0,1-.49-.2,1.36,1.36,0,0,1-.28-.18.4.4,0,0,1-.11-.19.86.86,0,0,1,0-.31c0-.09,0-.16,0-.22a.53.53,0,0,1,.05-.15.14.14,0,0,1,.06-.07.16.16,0,0,1,.1,0,.54.54,0,0,1,.26.1,4.31,4.31,0,0,0,.44.23,4.82,4.82,0,0,0,.65.23,3.31,3.31,0,0,0,.88.11,2.5,2.5,0,0,0,.69-.09,1.76,1.76,0,0,0,.53-.27,1.15,1.15,0,0,0,.35-.41,1.32,1.32,0,0,0,.12-.57,1,1,0,0,0-.17-.58,1.61,1.61,0,0,0-.44-.42,3.7,3.7,0,0,0-.63-.33c-.23-.11-.47-.21-.72-.31s-.49-.23-.72-.35a3.18,3.18,0,0,1-.63-.46,2,2,0,0,1-.44-.6,1.86,1.86,0,0,1-.17-.84,2,2,0,0,1,.19-.9,2,2,0,0,1,.56-.66,2.52,2.52,0,0,1,.84-.4,3.76,3.76,0,0,1,1.63-.09,4.44,4.44,0,0,1,.55.12,3.44,3.44,0,0,1,.46.17,2.11,2.11,0,0,1,.27.16l.08.09a.46.46,0,0,1,0,.09.43.43,0,0,1,0,.12,1.15,1.15,0,0,1,0,.2,1.09,1.09,0,0,1,0,.19q0,.09,0,.15a.15.15,0,0,1-.06.09.11.11,0,0,1-.08,0,.48.48,0,0,1-.23-.08l-.39-.2a2.81,2.81,0,0,0-.54-.19,2.2,2.2,0,0,0-.7-.09,1.74,1.74,0,0,0-.63.09,1.2,1.2,0,0,0-.45.23,1.06,1.06,0,0,0-.35.79,1,1,0,0,0,.17.57,1.55,1.55,0,0,0,.45.43,4.13,4.13,0,0,0,.63.34l.73.31a8,8,0,0,1,.72.35,2.9,2.9,0,0,1,.64.44,2.1,2.1,0,0,1,.45.61A1.92,1.92,0,0,1,173.44,33.6Z" transform="translate(-0.79 -7.91)" fill="#fff"/><path d="M180.45,28.3a1.27,1.27,0,0,1,0,.2.46.46,0,0,1-.05.14.27.27,0,0,1-.07.08l-.1,0h-2.44v6.94a.16.16,0,0,1,0,.09l-.1.06-.17,0-.28,0-.28,0-.18,0a.23.23,0,0,1-.09-.06.16.16,0,0,1,0-.09V28.74h-2.45l-.09,0-.08-.08a1.27,1.27,0,0,1,0-.14,1.23,1.23,0,0,1,0-.2,1.25,1.25,0,0,1,0-.21,1.55,1.55,0,0,1,0-.15l.08-.08.09,0h6.05l.1,0a.27.27,0,0,1,.07.08.53.53,0,0,1,.05.15A1.34,1.34,0,0,1,180.45,28.3Z" transform="translate(-0.79 -7.91)" fill="#fff"/><path d="M186.55,35.4a1.12,1.12,0,0,1,0,.2.57.57,0,0,1,0,.14l-.08.08-.1,0h-4.17a.52.52,0,0,1-.29-.09.38.38,0,0,1-.14-.34V28.27a.38.38,0,0,1,.14-.34.52.52,0,0,1,.29-.09h4.12l.1,0a.27.27,0,0,1,.07.08s0,.09,0,.14a1.34,1.34,0,0,1,0,.21,1.09,1.09,0,0,1,0,.19.72.72,0,0,1,0,.14.19.19,0,0,1-.07.08l-.1,0h-3.4v2.51h2.92a.17.17,0,0,1,.1,0,.27.27,0,0,1,.07.08.39.39,0,0,1,.05.13c0,.06,0,.13,0,.21s0,.14,0,.19A.39.39,0,0,1,186,32a.16.16,0,0,1-.07.07.16.16,0,0,1-.1,0h-2.92V35h3.45a.16.16,0,0,1,.1,0l.08.08a.4.4,0,0,1,0,.13A1.25,1.25,0,0,1,186.55,35.4Z" transform="translate(-0.79 -7.91)" fill="#fff"/><path d="M193.77,30.18a2.67,2.67,0,0,1-.21,1.08,2.32,2.32,0,0,1-.62.83,2.86,2.86,0,0,1-1,.52,4.41,4.41,0,0,1-1.39.19h-1v2.88a.16.16,0,0,1,0,.09l-.09.06-.18,0-.27,0-.28,0-.18,0a.29.29,0,0,1-.1-.06.29.29,0,0,1,0-.09V28.3a.4.4,0,0,1,.14-.36.5.5,0,0,1,.31-.1h1.87l.54,0,.61.09a2.91,2.91,0,0,1,.72.27,2.29,2.29,0,0,1,.62.48,2,2,0,0,1,.39.66A2.39,2.39,0,0,1,193.77,30.18Zm-1.22.09a1.58,1.58,0,0,0-.19-.82,1.43,1.43,0,0,0-.49-.49,2,2,0,0,0-.61-.2,4.26,4.26,0,0,0-.61,0h-1.07v3.21h1a2.77,2.77,0,0,0,.88-.13,1.59,1.59,0,0,0,.58-.34,1.49,1.49,0,0,0,.35-.53A1.76,1.76,0,0,0,192.55,30.27Z" transform="translate(-0.79 -7.91)" fill="#fff"/></svg>